<svg fill="none" height="68" width="68" xmlns="http://www.w3.org/2000/svg"><path d="M8.62 18.167h50.804a.576.576 0 00.576-.576 3.93 3.93 0 00-4.042-3.909H29.247a.598.598 0 01-.564-.429C28.084 11.299 23.85 8 21.83 8H10.879A2.891 2.891 0 008 10.892v6.699a.576.576 0 00.62.576zm50.804 2.26H8.621a.576.576 0 00-.576.576v21.396a2.88 2.88 0 002.879 2.88h17.905c.318 0 .576.258.576.577v6.778a.576.576 0 01-.576.576h-8.15a3.478 3.478 0 00-3.467 3.468 3.388 3.388 0 003.466 3.321h24.239a3.388 3.388 0 003.455-3.321 3.467 3.467 0 00-3.455-3.468h-8.151a.576.576 0 01-.576-.576v-6.778c0-.319.258-.577.576-.577H57.03a2.891 2.891 0 002.89-2.88V21.003a.576.576 0 00-.576-.577zM30.41 31.722h-1.524a.52.52 0 00-.508.52v8.02a.509.509 0 01-.508.509h-5.747a.508.508 0 01-.508-.508v-8.021a.52.52 0 00-.508-.52h-1.806a.508.508 0 01-.395-.825l5.554-6.936a.508.508 0 01.79 0l5.555 6.936a.509.509 0 01-.474.814zm18.74 3.062l-5.554 6.936a.508.508 0 01-.79 0l-5.555-6.936a.509.509 0 01.395-.825h1.457a.52.52 0 00.508-.52v-7.975a.52.52 0 01.508-.509h5.758c.28 0 .508.228.508.509v7.975a.53.53 0 00.519.52h1.795a.508.508 0 01.373.813z" fill="#083145"/></svg>