<svg fill="none" height="320" width="458" xmlns="http://www.w3.org/2000/svg"><linearGradient id="a" x1=".439" x2=".576" y1="0" y2="1"><stop offset="0" stop-color="#2258f6"/><stop offset="0" stop-color="#1149ed"/><stop offset="1" stop-color="#5a83f9"/></linearGradient><filter id="b" color-interpolation-filters="sRGB" height="115.073" width="215.854" x="-48" y="-44"><feFlood flood-opacity="0" result="BackgroundImageFix"/><feColorMatrix in="SourceAlpha" values="0 0 0 0 0 0 0 0 0 0 0 0 0 0 0 0 0 0 127 0"/><feOffset dy="4"/><feGaussianBlur stdDeviation="12"/><feColorMatrix values="0 0 0 0 0.0784313753247261 0 0 0 0 0.2980392277240753 0 0 0 0 0.929411768913269 0 0 0 0.20000000298023224 0"/><feBlend in2="BackgroundImageFix" result="effect1_dropShadow"/><feBlend in="SourceGraphic" in2="effect1_dropShadow" result="shape"/></filter><filter id="c" color-interpolation-filters="sRGB" height="200" width="200" x="-40" y="-30"><feFlood flood-opacity="0" result="BackgroundImageFix"/><feColorMatrix in="SourceAlpha" values="0 0 0 0 0 0 0 0 0 0 0 0 0 0 0 0 0 0 127 0"/><feOffset dy="10"/><feGaussianBlur stdDeviation="10"/><feColorMatrix values="0 0 0 0 0 0 0 0 0 0 0 0 0 0 0 0 0 0 0.05000000074505806 0"/><feBlend in2="BackgroundImageFix" result="effect1_dropShadow"/><feBlend in="SourceGraphic" in2="effect1_dropShadow" result="shape"/></filter><filter id="d" color-interpolation-filters="sRGB" height="200" width="200" x="-40" y="-30"><feFlood flood-opacity="0" result="BackgroundImageFix"/><feColorMatrix in="SourceAlpha" values="0 0 0 0 0 0 0 0 0 0 0 0 0 0 0 0 0 0 127 0"/><feOffset dy="10"/><feGaussianBlur stdDeviation="10"/><feColorMatrix values="0 0 0 0 0 0 0 0 0 0 0 0 0 0 0 0 0 0 0.05000000074505806 0"/><feBlend in2="BackgroundImageFix" result="effect1_dropShadow"/><feBlend in="SourceGraphic" in2="effect1_dropShadow" result="shape"/></filter><path d="M233.6 208.307l-1.655 1.49a.982.982 0 000 1.491l7.448 6.71-7.448 6.71a.982.982 0 000 1.49l1.655 1.49a1.263 1.263 0 001.655 0l9.93-8.944a.983.983 0 000-1.492l-9.93-8.945a1.263 1.263 0 00-1.655 0zm18.473 0l-1.655 1.49a.982.982 0 000 1.491l7.448 6.71-7.449 6.71a.982.982 0 000 1.49l1.655 1.49a1.264 1.264 0 001.655 0l9.93-8.944a.983.983 0 000-1.492l-9.93-8.945a1.263 1.263 0 00-1.654 0zm-37.132 0l-1.655 1.49a.982.982 0 000 1.49l7.449 6.71-7.448 6.71a.982.982 0 000 1.49l1.655 1.491a1.264 1.264 0 001.655 0l9.93-8.945a.982.982 0 000-1.49l-.001-.002-1.653-1.49-.004-.002-8.273-7.453a1.263 1.263 0 00-1.655 0zm-18.942 0l-1.655 1.49a.982.982 0 000 1.49l7.448 6.71-7.448 6.71a.982.982 0 000 1.49l1.655 1.491a1.263 1.263 0 001.655 0l9.93-8.945a.983.983 0 000-1.492l-9.93-8.945a1.263 1.263 0 00-1.655 0zm28.401 52l1.655 1.491a.982.982 0 010 1.49l-7.448 6.71 7.449 6.71a.982.982 0 010 1.49l-1.656 1.491a1.263 1.263 0 01-1.655 0l-9.93-8.945a.983.983 0 010-1.492l9.93-8.945a1.263 1.263 0 011.655 0zm-18.473 0l1.655 1.491a.982.982 0 010 1.49l-7.448 6.71 7.449 6.71a.982.982 0 010 1.49l-1.655 1.491a1.264 1.264 0 01-1.655 0l-9.93-8.945a.983.983 0 010-1.492l9.93-8.945a1.263 1.263 0 011.654 0zm37.132 0l1.655 1.49a.982.982 0 010 1.491l-7.449 6.71 7.448 6.709a.982.982 0 010 1.49l-1.655 1.492a1.264 1.264 0 01-1.655 0l-9.93-8.945a.982.982 0 010-1.491l.001-.001 1.654-1.49.003-.003 8.273-7.452a1.263 1.263 0 011.655 0zm18.942 0l1.655 1.49a.982.982 0 010 1.491l-7.448 6.71 7.448 6.709a.982.982 0 010 1.49l-1.655 1.492a1.263 1.263 0 01-1.655 0l-9.93-8.945a.983.983 0 010-1.492l9.93-8.945a1.263 1.263 0 011.655 0z" fill="#2258f6" fill-rule="evenodd" opacity=".3"/><path d="M296.415 160h-151.59a57.815 57.815 0 01-21.065-7.131 43.146 43.146 0 01-14.645-13.646 45.923 45.923 0 01-7.07-24.581 53.166 53.166 0 015.869-26.537 44.824 44.824 0 0113.671-15.289 53.482 53.482 0 0120.12-8.678v-.025a45.803 45.803 0 011.304-12.522 26.654 26.654 0 0113.828-18.439 25.122 25.122 0 0111.667-2.827 39.24 39.24 0 0122 8.159v-.041a64.212 64.212 0 0111.429-19.2 55.64 55.64 0 0116.495-13.228A54.988 54.988 0 01244.059.004c1.737 0 3.535.07 5.328.211a60.06 60.06 0 0132.211 13.475 57.079 57.079 0 0115.657 22.55 80.247 80.247 0 015.429 30.568 41.855 41.855 0 0126.555 12.996c8.526 9.318 12.45 22.676 11.662 39.714a47.06 47.06 0 01-9.262 22.964 43.444 43.444 0 01-15.036 12.064A53.788 53.788 0 01296.415 160z" fill="url(#a)"/><g filter="url(#b)"><path d="M171.346 80.378a3.094 3.094 0 00-2.713 1.184c-1.388 1.97-.07 5.835 0 6.002a28.92 28.92 0 0010.98 8.93c4.475 1.602 38.227 2.887 63.186 2.887 9.646.205 19.296-.162 28.898-1.099a21.481 21.481 0 0015.248-10.028 6.304 6.304 0 00.354-5.845 2.8 2.8 0 00-2.207-1.346h-.116a3.678 3.678 0 00-2.212 1.184 17.176 17.176 0 01-11.207 7.856 123.693 123.693 0 01-25.03 1.915c-4.364 0-7.48-.106-7.51-.106-1.577.035-3.39.05-5.39.05-15.919 0-41.54-1.077-42.62-1.128a25.018 25.018 0 01-17.954-10.265 8.204 8.204 0 00-1.709-.206z" fill="#fff"/></g><path d="M93.5 186q0-3.317 1.282-6.348 1.238-2.927 3.495-5.184 2.256-2.256 5.183-3.494 3.03-1.282 6.348-1.282h84q1.972 0 3.772-.761 1.74-.736 3.081-2.078 1.342-1.341 2.078-3.08.761-1.8.761-3.773h1q0 2.175-.84 4.162-.812 1.919-2.292 3.398-1.479 1.48-3.398 2.292-1.987.84-4.162.84h-84q-3.115 0-5.958 1.203-2.747 1.162-4.866 3.28-2.12 2.12-3.281 4.867Q94.5 182.885 94.5 186zm271 0q0-3.317-1.282-6.348-1.238-2.927-3.495-5.184-2.256-2.256-5.183-3.494-3.03-1.282-6.348-1.282h-82q-1.972 0-3.772-.761-1.74-.736-3.081-2.078-1.342-1.341-2.078-3.08-.761-1.8-.761-3.773h-1q0 2.175.84 4.162.812 1.919 2.292 3.398 1.479 1.48 3.398 2.292 1.987.84 4.162.84h82q3.115 0 5.958 1.203 2.747 1.162 4.866 3.28 2.12 2.12 3.281 4.867 1.203 2.843 1.203 5.958z" fill="#e7e7e7"/><g filter="url(#c)"><rect fill="#fff" height="120" rx="16" width="120" x="298" y="184"/><rect height="119" rx="15.5" stroke="#e6e8e9" width="119" x="298.5" y="184.5"/></g><path d="M395.295 255.404c.94 1.22.778 2.96-.372 3.984a3.164 3.164 0 01-4.172-.382l-6.64-8.527-6.454 8.341a2.939 2.939 0 01-4.173.382 2.78 2.78 0 01-.568-3.985l7.561-9.859-7.56-9.859a3.181 3.181 0 01.568-4.17 3.184 3.184 0 014.172.567l6.454 8.528 6.64-8.146a2.939 2.939 0 014.172-.568 2.936 2.936 0 01.372 4.18l-7.394 9.664zm-34.513-1.136c-4.89.098-8.908-3.835-8.913-8.724 0-4.92 3.99-8.91 8.913-8.91s8.912 3.99 8.912 8.91a8.98 8.98 0 01-8.912 8.724zm-26.18 0c-4.887.093-8.902-3.837-8.912-8.724.004-4.918 3.993-8.903 8.913-8.903s8.909 3.985 8.912 8.903c-.004 4.89-4.023 8.822-8.912 8.724zm26.18-23.136a14.691 14.691 0 00-12.899 7.588 14.76 14.76 0 00-13.084-7.588 15.673 15.673 0 00-8.923 2.85V221.84a2.938 2.938 0 00-2.84-2.84 2.938 2.938 0 00-3.036 2.84v23.9c.171 7.927 6.67 14.254 14.603 14.215a14.917 14.917 0 0013.084-7.774 14.868 14.868 0 0012.899 7.774c8.121.06 14.75-6.48 14.798-14.598.196-7.774-6.454-14.226-14.602-14.226z" fill="#0061d5"/><g filter="url(#d)"><rect fill="#fff" height="120" rx="16" width="120" x="40" y="184"/><rect height="119" rx="15.5" stroke="#e6e8e9" width="119" x="40.5" y="184.5"/></g><path d="M83 215l-17 10.927 17 10.763 17-10.763zm34 0l-17 10.924 17 10.764 17-10.764zm-51 32.617l17 10.925 17-10.925-17-10.927zm51-10.927l-17 10.925 17 10.924 17-10.924zm-34 25.386L100 273l17-10.924-17-10.764z" fill="#0061fe"/></svg>