<svg fill="none" height="68" width="68" xmlns="http://www.w3.org/2000/svg"><path d="M67.37 48.852a2.666 2.666 0 01-.333 3.596 2.814 2.814 0 01-3.733-.345l-5.942-7.695-5.774 7.528a2.614 2.614 0 01-3.733.344 2.523 2.523 0 01-.509-3.596l6.765-8.897-6.765-8.898a2.888 2.888 0 01.509-3.764 2.832 2.832 0 013.733.513l5.774 7.696 5.942-7.351a2.615 2.615 0 013.733-.513 2.666 2.666 0 01.333 3.773l-6.616 8.72zm-30.881-1.025c-4.375.089-7.97-3.46-7.974-7.872 0-4.441 3.57-8.04 7.974-8.04s7.974 3.599 7.974 8.04c-.122 4.36-3.647 7.84-7.974 7.872zm-23.423 0c-4.373.084-7.966-3.462-7.975-7.872.003-4.439 3.573-8.035 7.975-8.035 4.402 0 7.97 3.596 7.974 8.035-.004 4.412-3.6 7.961-7.974 7.872zm23.423-20.878c-4.798-.013-9.222 2.612-11.54 6.847-2.358-4.278-6.854-6.908-11.708-6.847a13.942 13.942 0 00-7.983 2.57V18.565a2.64 2.64 0 00-2.541-2.562A2.638 2.638 0 000 18.564V40.13c.153 7.155 5.968 12.865 13.066 12.83 4.88-.005 9.37-2.695 11.707-7.016 2.3 4.276 6.717 6.96 11.54 7.015 7.267.054 13.198-5.847 13.242-13.173.175-7.016-5.775-12.838-13.066-12.838z" fill="#0061d5"/></svg>