<svg fill="none" height="68" width="68" xmlns="http://www.w3.org/2000/svg"><path d="M18.872 17.418c8.645.013 15.65 7.018 15.663 15.663v1.452H4.585c-.802 0-1.452-.65-1.452-1.452.075-8.649 7.09-15.63 15.74-15.663z" fill="#fbbc04"/><path d="M51.65 18.872c-.013 8.645-7.018 15.65-15.663 15.663h-1.452V4.585c0-.802.65-1.452 1.452-1.452 8.649.075 15.63 7.09 15.663 15.74z" fill="#ea4335"/><path d="M50.198 51.65c-8.645-.013-15.65-7.018-15.663-15.663v-1.452h29.95c.802 0 1.452.65 1.452 1.452-.075 8.649-7.09 15.63-15.739 15.663z" fill="#4285f4"/><path d="M17.42 50.198c.013-8.645 7.018-15.65 15.663-15.663h1.452v29.95c0 .802-.65 1.452-1.452 1.452-8.649-.075-15.63-7.09-15.663-15.739z" fill="#34a853"/></svg>