<svg fill="none" height="68" width="68" xmlns="http://www.w3.org/2000/svg"><path d="M44.297 42.867h-20.5l-8.78 15.254c1.057.535 2.256.877 3.032.877 8.065 0 24.523-.119 32.693-.119.84 0 1.626-.285 2.331-.731z" fill="#4185f3"/><path d="M15.018 58.125l8.78-15.254H6.007c-.009 1.06.37 2.03.964 3.136 1.654 3.077 4.452 7.999 6.096 10.569.406.633 2.014 1.581 1.95 1.549z" fill="#1767d1"/><path d="M44.297 42.868l8.78 15.279c1.137-.72 2.064-1.86 2.666-2.909a836.394 836.394 0 015.244-8.975c.736-1.24 1.023-2.354 1.005-3.396z" fill="#e94235"/><path d="M23.799 42.871l10.24-17.709-9.152-15.178c-.99.648-1.836 1.527-2.22 2.196-3.995 6.97-12.043 21.253-16.09 28.313a4.346 4.346 0 00-.572 2.378z" fill="#30a753"/><path d="M44.298 42.87L34.039 25.163 42.94 10c.99.648 2.077 1.51 2.461 2.18 3.995 6.968 12.042 21.252 16.09 28.311.418.726.544 1.548.504 2.379z" fill="#f9bc00"/><path d="M24.887 9.986l9.153 15.176 8.9-15.161c-.919-.536-2.219-.851-3.48-.89-3.506-.116-9.19-.163-12.25-.03-.753.032-2.314.899-2.323.905z" fill="#0f8038"/></svg>