<svg fill="none" height="320" width="458" xmlns="http://www.w3.org/2000/svg"><linearGradient id="a" x1=".439" x2=".576" y1="0" y2="1"><stop offset="0" stop-color="#2258f6"/><stop offset="0" stop-color="#1149ed"/><stop offset="1" stop-color="#5a83f9"/></linearGradient><filter id="b" color-interpolation-filters="sRGB" height="176" width="176" x="-40" y="-30"><feFlood flood-opacity="0" result="BackgroundImageFix"/><feColorMatrix in="SourceAlpha" values="0 0 0 0 0 0 0 0 0 0 0 0 0 0 0 0 0 0 127 0"/><feOffset dy="10"/><feGaussianBlur stdDeviation="10"/><feColorMatrix values="0 0 0 0 0 0 0 0 0 0 0 0 0 0 0 0 0 0 0.05000000074505806 0"/><feBlend in2="BackgroundImageFix" result="effect1_dropShadow"/><feBlend in="SourceGraphic" in2="effect1_dropShadow" result="shape"/></filter><filter id="c" color-interpolation-filters="sRGB" height="176" width="176" x="-40" y="-30"><feFlood flood-opacity="0" result="BackgroundImageFix"/><feColorMatrix in="SourceAlpha" values="0 0 0 0 0 0 0 0 0 0 0 0 0 0 0 0 0 0 127 0"/><feOffset dy="10"/><feGaussianBlur stdDeviation="10"/><feColorMatrix values="0 0 0 0 0 0 0 0 0 0 0 0 0 0 0 0 0 0 0.05000000074505806 0"/><feBlend in2="BackgroundImageFix" result="effect1_dropShadow"/><feBlend in="SourceGraphic" in2="effect1_dropShadow" result="shape"/></filter><path d="M159.28 90.902q.331-1.449.723-2.882.391-1.433.843-2.849.452-1.415.963-2.81.51-1.396 1.08-2.768.57-1.373 1.196-2.72.627-1.348 1.31-2.668t1.422-2.61q.738-1.29 1.53-2.548t1.636-2.482q.845-1.223 1.74-2.41.895-1.188 1.84-2.336.944-1.149 1.936-2.257.992-1.107 2.03-2.173 1.038-1.065 2.12-2.086 1.082-1.02 2.207-1.995 1.124-.974 2.288-1.9 1.164-.927 2.366-1.804 1.203-.877 2.441-1.702 1.238-.826 2.51-1.598 1.272-.773 2.576-1.492 1.303-.719 2.636-1.382 1.332-.664 2.692-1.27 1.36-.608 2.743-1.157 1.384-.55 2.79-1.04 1.406-.49 2.83-.922 1.426-.431 2.868-.803 1.442-.37 2.899-.681 1.456-.31 2.925-.56 1.468-.248 2.946-.435 1.477-.187 2.961-.312 1.485-.125 2.973-.187 1.488-.063 2.977-.063 1.49 0 2.978.063 1.488.062 2.972.187t2.962.312q1.477.187 2.946.436 1.468.249 2.924.559 1.457.31 2.899.681 1.442.372 2.868.803 1.425.431 2.831.922 1.405.49 2.789 1.04 1.384.55 2.743 1.156 1.36.607 2.693 1.27 1.332.664 2.636 1.383 1.303.719 2.575 1.491 1.272.773 2.51 1.599 1.238.825 2.441 1.702 1.202.877 2.366 1.803 1.165.927 2.289 1.901t2.206 1.995q1.082 1.021 2.12 2.086 1.038 1.066 2.03 2.173.992 1.108 1.937 2.257.944 1.148 1.84 2.335.895 1.188 1.739 2.411.844 1.224 1.636 2.482.792 1.258 1.531 2.548.738 1.29 1.421 2.61.683 1.32 1.31 2.668.627 1.347 1.196 2.72.57 1.372 1.081 2.768.511 1.395.962 2.81.452 1.416.843 2.849.392 1.433.723 2.881 1.105.129 2.203.307 1.099.179 2.188.407 1.089.229 2.166.506 1.078.278 2.141.604 1.064.326 2.112.7 1.048.375 2.078.796 1.029.422 2.039.89 1.009.468 1.997.98.987.514 1.95 1.072.963.557 1.899 1.158.937.601 1.845 1.244.908.643 1.786 1.326t1.724 1.406q.846.723 1.659 1.483.812.76 1.589 1.557.777.796 1.517 1.627.74.831 1.442 1.695.701.864 1.362 1.758.662.895 1.282 1.819.62.924 1.198 1.875.577.95 1.111 1.927.533.977 1.022 1.976.489 1 .932 2.02.442 1.021.838 2.061.396 1.04.744 2.097.349 1.057.648 2.128.3 1.072.551 2.156.251 1.084.452 2.178.201 1.095.353 2.197.151 1.102.252 2.21.101 1.109.152 2.22.05 1.112.05 2.224 0 1.201-.059 2.401-.059 1.2-.176 2.395-.118 1.196-.294 2.384-.177 1.188-.411 2.366-.234 1.178-.526 2.344-.292 1.165-.641 2.314-.348 1.15-.753 2.281-.405 1.131-.864 2.24-.46 1.11-.974 2.196-.513 1.086-1.08 2.145-.566 1.06-1.183 2.09-.618 1.03-1.285 2.029-.668.999-1.383 1.963-.716.965-1.478 1.894-.762.928-1.568 1.818-.807.89-1.656 1.74-.85.849-1.74 1.656-.89.806-1.818 1.568-.929.762-1.894 1.478-.964.716-1.963 1.383-.999.667-2.029 1.285-1.031.617-2.09 1.184-1.059.566-2.145 1.079-1.086.514-2.196.974-1.109.459-2.24.864-1.131.405-2.281.753-1.149.349-2.315.641-1.165.292-2.343.526-1.178.234-2.366.411-1.188.176-2.384.294-1.195.117-2.395.176-1.2.059-2.401.059H164.931q-1.201 0-2.4-.059-1.2-.059-2.396-.176-1.195-.118-2.384-.294-1.188-.177-2.366-.411-1.178-.234-2.343-.526-1.165-.292-2.315-.641-1.15-.348-2.28-.753-1.131-.405-2.241-.864-1.11-.46-2.196-.974-1.085-.513-2.145-1.079-1.06-.567-2.09-1.184-1.03-.618-2.029-1.285-.998-.667-1.963-1.383-.965-.716-1.893-1.478-.929-.762-1.819-1.568-.89-.807-1.74-1.656-.849-.85-1.655-1.74-.807-.89-1.57-1.818-.761-.929-1.477-1.894-.715-.964-1.383-1.963-.667-.999-1.285-2.029-.617-1.03-1.183-2.09-.567-1.059-1.08-2.145-.514-1.086-.973-2.196-.46-1.109-.865-2.24-.404-1.131-.753-2.281-.349-1.149-.64-2.314-.292-1.166-.527-2.344-.234-1.178-.41-2.366-.177-1.188-.294-2.384-.118-1.195-.177-2.395t-.059-2.401q0-1.112.05-2.224.051-1.111.152-2.22.101-1.108.253-2.21.15-1.102.352-2.196.201-1.095.452-2.179.251-1.084.55-2.155.3-1.072.649-2.129.348-1.056.744-2.096t.838-2.06q.443-1.022.932-2.021.489-1 1.022-1.976.534-.976 1.111-1.928.578-.95 1.198-1.874.62-.924 1.281-1.82.662-.894 1.363-1.757.701-.864 1.441-1.695.74-.831 1.517-1.628.777-.796 1.59-1.556.812-.76 1.658-1.483.846-.723 1.724-1.406.878-.684 1.786-1.326.909-.643 1.845-1.244.936-.601 1.9-1.159.962-.557 1.95-1.07.987-.514 1.996-.982 1.01-.468 2.04-.89 1.029-.42 2.077-.795 1.047-.374 2.111-.7 1.064-.327 2.141-.604 1.078-.278 2.167-.506 1.089-.229 2.187-.407 1.098-.179 2.204-.307z" fill="url(#a)" fill-rule="evenodd"/><path d="M258.083 119.075L228.687 83.28l-29.397 35.794h14.687v39.202h29.418v-39.202z" fill="#fff" fill-rule="evenodd"/><g filter="url(#b)"><rect fill="#fff" height="96" rx="12" width="96" x="50" y="195"/><rect height="95" rx="11.5" stroke="#e6e8e9" width="95" x="50.5" y="195.5"/></g><path d="M110.308 253.16H86.206l-10.321 17.964c1.242.63 2.652 1.033 3.564 1.033 9.48 0 28.83-.14 38.435-.14.988 0 1.912-.336 2.74-.861z" fill="#4185f3"/><path d="M75.884 271.124l10.321-17.964H65.291c-.01 1.249.435 2.39 1.133 3.694 1.945 3.623 5.235 9.42 7.168 12.446.476.746 2.368 1.862 2.292 1.824z" fill="#1767d1"/><path d="M110.309 253.162l10.321 17.992c1.338-.847 2.428-2.19 3.136-3.425 1.598-2.787 4.3-7.427 6.164-10.57.866-1.46 1.203-2.772 1.182-3.999z" fill="#e94235"/><path d="M86.208 253.163l12.039-20.855-10.76-17.874c-1.163.762-2.158 1.797-2.61 2.585-4.697 8.209-14.157 25.03-18.915 33.343a5.125 5.125 0 00-.672 2.801z" fill="#30a753"/><path d="M110.307 253.163l-12.06-20.855 10.463-17.855c1.164.763 2.441 1.778 2.893 2.567 4.696 8.207 14.157 25.028 18.917 33.341.49.855.639 1.822.59 2.801z" fill="#f9bc00"/><path d="M87.486 214.435l10.761 17.872 10.464-17.855c-1.08-.63-2.609-1.002-4.092-1.049-4.122-.136-10.804-.191-14.4-.035-.887.038-2.721 1.06-2.733 1.067z" fill="#0f8038"/><g filter="url(#c)"><rect fill="#fff" height="96" rx="12" width="96" x="312" y="195"/><rect height="95" rx="11.5" stroke="#e6e8e9" width="95" x="312.5" y="195.5"/></g><path d="M351.591 229.568v-.003l15.55 9.015 9.264-3.775a15.426 15.426 0 016.98-1.153c-3.175-11.984-15.784-19.208-28.166-16.137-5.579 1.384-10.424 4.731-13.589 9.387l.236-.007a18.88 18.88 0 019.725 2.673z" fill="#0364b8"/><path d="M351.594 229.564a18.882 18.882 0 00-9.728-2.67l-.236.007c-10.22.124-18.404 8.244-18.276 18.136a17.525 17.525 0 003.325 10.021l13.706-5.584 6.096-2.484 13.57-5.528 7.088-2.884z" fill="#0078d4"/><path d="M383.386 233.65q-.508-.036-1.017-.037a15.42 15.42 0 00-5.962 1.192l-9.267 3.773 2.687 1.557 8.806 5.104 3.845 2.227 13.137 7.615c3.94-7.077 1.206-15.91-6.11-19.723a15.421 15.421 0 00-6.12-1.709z" fill="#1490df"/><path d="M382.478 247.47l-3.845-2.227-8.804-5.107-2.685-1.554-7.09 2.885-13.57 5.527-6.098 2.483-13.711 5.584c3.46 4.813 9.135 7.68 15.192 7.677h40.504c5.534.002 10.622-2.937 13.247-7.652z" fill="#28a8ea"/><path d="M235.259 227.431l-2.184 2.087a1.43 1.43 0 000 2.088l9.828 9.392-9.828 9.392a1.43 1.43 0 000 2.087l2.184 2.088a1.595 1.595 0 002.184 0l10.878-10.396a1.62 1.62 0 00.043-.04l2.184-2.087a1.435 1.435 0 000-2.089l-2.184-2.087a1.434 1.434 0 00-.039-.036l-10.882-10.399a1.596 1.596 0 00-2.184 0zm24.378 0l-2.184 2.087a1.43 1.43 0 000 2.088l9.828 9.392-9.828 9.392a1.43 1.43 0 000 2.087l2.184 2.088a1.595 1.595 0 002.184 0l10.878-10.396a1.62 1.62 0 00.043-.04l2.184-2.087a1.434 1.434 0 000-2.089l-2.184-2.087a1.298 1.298 0 00-.039-.036l-10.881-10.399a1.596 1.596 0 00-2.185 0zm-49-.003l-2.184 2.087a1.43 1.43 0 000 2.087l9.83 9.394-9.83 9.394a1.43 1.43 0 000 2.088l2.184 2.087a1.595 1.595 0 002.185 0l13.104-12.524a1.436 1.436 0 000-2.09l-13.104-12.523a1.596 1.596 0 00-2.184 0zm-25 0l-2.184 2.087a1.43 1.43 0 000 2.087l9.83 9.394-9.83 9.394a1.43 1.43 0 000 2.088l2.184 2.087a1.596 1.596 0 002.185 0l13.104-12.524a1.436 1.436 0 000-2.09l-13.104-12.523a1.596 1.596 0 00-2.184 0z" fill="#2258f6" fill-rule="evenodd" opacity=".3"/></svg>