<svg fill="none" height="68" width="68" xmlns="http://www.w3.org/2000/svg"><path d="M3 34C3 16.79 16.966 2.875 34.112 3 51.171 3 65 16.88 65 34c0 17.12-13.829 30.998-30.888 30.998C16.939 65.19 2.934 51.235 3 34zm40.858-1.668l.213 12.079c0 1.25.202 1.453 1.448 1.453h2.908c1.449 0 1.662-.203 1.662-1.667V24.422c0-2.501 0-2.501-2.695-2.501a5.07 5.07 0 00-3.323 1.261c-3.11 3.335-6.39 6.414-9.586 9.62-.618.63-1.065.63-1.449 0-2.908-2.918-6.018-5.825-8.712-8.743a5.667 5.667 0 00-5.187-2.085 1.067 1.067 0 00-1.204 1.208v21.432a1.067 1.067 0 001.246 1.25h3.11c1.246 0 1.449-.235 1.449-1.453V33.166c0-.203-.203-.62.213-.834l7.882 7.953c1.661 1.667 2.279 1.667 3.94 0a96.312 96.312 0 008.085-7.91z" fill="#d90007"/></svg>