<svg fill="none" height="68" width="68" xmlns="http://www.w3.org/2000/svg"><path d="M62.001 34.619c0-2.302-.19-3.982-.603-5.724H34.572v10.39h15.746c-.317 2.583-2.031 6.472-5.841 9.085l-.053.348 8.481 6.44.588.057c5.397-4.885 8.508-12.07 8.508-20.596z" fill="#4285f4"/><path d="M34.57 61.997c7.715 0 14.191-2.489 18.921-6.782l-9.016-6.845c-2.412 1.65-5.65 2.8-9.904 2.8-7.556 0-13.968-4.884-16.254-11.635l-.335.028-8.82 6.689-.115.315c4.698 9.146 14.35 15.43 25.524 15.43" fill="#34a853"/><path d="M18.317 39.536a16.925 16.925 0 01-.952-5.538c0-1.929.35-3.796.92-5.538l-.015-.37-8.93-6.797-.292.136C7.11 25.225 6 29.487 6 34c0 4.51 1.111 8.772 3.047 12.568z" fill="#fbbc05"/><path d="M34.57 16.827c5.366 0 8.985 2.27 11.048 4.169l8.064-7.716C48.73 8.769 42.285 6 34.57 6 23.396 6 13.745 12.284 9.047 21.431l9.238 7.031c2.317-6.75 8.73-11.635 16.286-11.635z" fill="#eb4335"/></svg>