<svg fill="none" height="68" width="68" xmlns="http://www.w3.org/2000/svg"><clipPath id="a"><path d="M0 0h68v68H0z"/></clipPath><linearGradient id="b" x1=".5" x2=".5" y1="0" y2="1"><stop offset="0" stop-color="#f89b35"/><stop offset="1" stop-color="#fec229"/></linearGradient><linearGradient id="c" x1=".5" x2=".5" y1="0" y2="1"><stop offset="0" stop-color="#ffe836"/><stop offset="1" stop-color="#dfdd31"/></linearGradient><linearGradient id="d" x1=".5" x2=".5" y1="0" y2="1"><stop offset="0" stop-color="#c7db43"/><stop offset="1" stop-color="#96cc6a"/></linearGradient><linearGradient id="e" x1=".5" x2=".5" y1="0" y2="1"><stop offset="0" stop-color="#6ababc"/><stop offset="1" stop-color="#6ac385"/></linearGradient><linearGradient id="f" x1=".5" x2=".5" y1="0" y2="1"><stop offset="0" stop-color="#69b7e5"/><stop offset="1" stop-color="#87a1d3"/></linearGradient><linearGradient id="g" x1=".5" x2=".5" y1="0" y2="1"><stop offset="0" stop-color="#968ec4"/><stop offset="1" stop-color="#b58ec1"/></linearGradient><linearGradient id="h" x1=".5" x2=".5" y1="1" y2="0"><stop offset="0" stop-color="#e2768d"/><stop offset="1" stop-color="#cd8cbd"/></linearGradient><linearGradient id="i" x1=".5" x2=".5" y1="0" y2="1"><stop offset="0" stop-color="#f26568"/><stop offset="1" stop-color="#f37d4f"/></linearGradient><g clip-path="url(#a)"><rect fill="url(#b)" height="25.39" rx="8.322" width="16.643" x="25.678" y="7"/><rect fill="url(#c)" height="25.39" rx="8.322" transform="rotate(45 47.206 9.024)" width="16.643" x="47.206" y="9.024"/><rect fill="url(#d)" height="25.39" rx="8.322" transform="rotate(90 61 25.678)" width="16.643" x="61" y="25.678"/><rect fill="url(#e)" height="25.39" rx="8.322" transform="rotate(135 58.976 47.208)" width="16.643" x="58.976" y="47.208"/><rect fill="url(#f)" height="25.39" rx="8.322" transform="rotate(180 42.322 61)" width="16.643" x="42.322" y="61"/><rect fill="url(#g)" height="25.39" rx="8.322" transform="rotate(-135 20.794 58.976)" width="16.643" x="20.794" y="58.976"/><rect fill="url(#h)" height="25.39" rx="8.322" transform="rotate(-90 7 42.322)" width="16.643" x="7" y="42.322"/><rect fill="url(#i)" height="25.39" rx="8.322" transform="rotate(-45 9.024 20.792)" width="16.643" x="9.024" y="20.792"/></g></svg>