<svg fill="none" height="320" width="458" xmlns="http://www.w3.org/2000/svg"><filter id="a" color-interpolation-filters="sRGB" height="358" width="358" x="-48" y="-44"><feFlood flood-opacity="0" result="BackgroundImageFix"/><feColorMatrix in="SourceAlpha" values="0 0 0 0 0 0 0 0 0 0 0 0 0 0 0 0 0 0 127 0"/><feOffset dy="4"/><feGaussianBlur stdDeviation="12"/><feColorMatrix values="0 0 0 0 0.0784313753247261 0 0 0 0 0.2980392277240753 0 0 0 0 0.929411768913269 0 0 0 0.20000000298023224 0"/><feBlend in2="BackgroundImageFix" result="effect1_dropShadow"/><feBlend in="SourceGraphic" in2="effect1_dropShadow" result="shape"/></filter><linearGradient id="b" x1=".439" x2=".576" y1="0" y2="1"><stop offset="0" stop-color="#1149ed"/><stop offset="1" stop-color="#5a83f9"/></linearGradient><filter id="c" color-interpolation-filters="sRGB" height="190" width="190" x="-40" y="-30"><feFlood flood-opacity="0" result="BackgroundImageFix"/><feColorMatrix in="SourceAlpha" values="0 0 0 0 0 0 0 0 0 0 0 0 0 0 0 0 0 0 127 0"/><feOffset dy="10"/><feGaussianBlur stdDeviation="10"/><feColorMatrix values="0 0 0 0 0 0 0 0 0 0 0 0 0 0 0 0 0 0 0.05000000074505806 0"/><feBlend in2="BackgroundImageFix" result="effect1_dropShadow"/><feBlend in="SourceGraphic" in2="effect1_dropShadow" result="shape"/></filter><filter id="d" color-interpolation-filters="sRGB" height="190" width="190" x="-40" y="-30"><feFlood flood-opacity="0" result="BackgroundImageFix"/><feColorMatrix in="SourceAlpha" values="0 0 0 0 0 0 0 0 0 0 0 0 0 0 0 0 0 0 127 0"/><feOffset dy="10"/><feGaussianBlur stdDeviation="10"/><feColorMatrix values="0 0 0 0 0 0 0 0 0 0 0 0 0 0 0 0 0 0 0.05000000074505806 0"/><feBlend in2="BackgroundImageFix" result="effect1_dropShadow"/><feBlend in="SourceGraphic" in2="effect1_dropShadow" result="shape"/></filter><g filter="url(#a)"><rect fill="url(#b)" height="262" rx="131" width="262" x="102" y="33"/></g><rect fill="#fff" height="206" rx="103" width="206" x="130" y="61"/><g filter="url(#c)"><rect fill="#fff" height="110" rx="16" width="110" x="314" y="202"/><rect height="109" rx="15.5" stroke="#e6e8e9" width="109" x="314.5" y="202.5"/></g><path d="M343.62 241.167h50.804a.576.576 0 00.576-.576 3.93 3.93 0 00-4.042-3.909h-26.711a.598.598 0 01-.564-.429c-.599-1.954-4.832-5.253-6.853-5.253h-10.951a2.891 2.891 0 00-2.879 2.892v6.699a.576.576 0 00.62.576zm50.804 2.26h-50.803a.576.576 0 00-.576.576v21.396a2.88 2.88 0 002.879 2.88h17.905c.318 0 .576.258.576.577v6.778a.576.576 0 01-.576.576h-8.15a3.478 3.478 0 00-3.467 3.468 3.388 3.388 0 003.466 3.321h24.239a3.388 3.388 0 003.455-3.321 3.467 3.467 0 00-3.455-3.468h-8.151a.576.576 0 01-.576-.576v-6.778c0-.319.258-.577.576-.577h20.265a2.891 2.891 0 002.89-2.88v-21.396a.576.576 0 00-.576-.577zm-29.014 11.296h-1.524a.52.52 0 00-.508.52v8.02a.509.509 0 01-.508.509h-5.747a.508.508 0 01-.508-.508v-8.021a.52.52 0 00-.508-.52h-1.806a.508.508 0 01-.395-.825l5.554-6.936a.508.508 0 01.79 0l5.555 6.936a.509.509 0 01-.474.814zm18.74 3.062l-5.554 6.936a.508.508 0 01-.79 0l-5.555-6.936a.509.509 0 01.396-.825h1.456a.52.52 0 00.508-.52v-7.975a.52.52 0 01.508-.509h5.758c.28 0 .508.228.508.509v7.975a.53.53 0 00.519.52h1.795a.508.508 0 01.373.813z" fill="#083145"/><g filter="url(#d)"><rect fill="#fff" height="110" rx="16" width="110" x="34" y="20"/><rect height="109" rx="15.5" stroke="#e6e8e9" width="109" x="34.5" y="20.5"/></g><path d="M72.5 46L56 57.115l16.5 10.95L89 57.114zm33 0L89 57.113l16.5 10.949 16.5-10.95zM56 79.18l16.5 11.112L89 79.18 72.5 68.064zm49.5-11.116L89 79.177l16.5 11.112L122 79.177zm-33 25.823L89 105l16.5-11.113L89 82.938z" fill="#0061fe"/><path d="M234.172 197c18.13 0 32.828-14.998 32.828-33.5S252.303 130 234.172 130c-12.073 0-22.623 6.65-28.326 16.558L199 139.57v31.108h30.483l-7.035-7.179c0-6.608 5.25-11.964 11.724-11.964 6.475 0 11.725 5.356 11.725 11.964s-5.25 11.964-11.725 11.964c-2.639 0-5.075-.89-7.034-2.392v23.157c2.266.505 4.62.771 7.034.771z" fill="#134bed" fill-rule="evenodd"/></svg>